Coordinates
version=1
nRows=34
nColumns=38
inDegrees=no

Units are S.I. units (second, meters, Newtons, ...)
If the header above contains a line with 'inDegrees', this indicates whether rotational values are in degrees (yes) or radians (no).

endheader
time	pelvis_tilt	pelvis_list	pelvis_rotation	pelvis_tx	pelvis_ty	pelvis_tz	hip_flexion_r	hip_adduction_r	hip_rotation_r	knee_angle_r	ankle_angle_r	subtalar_angle_r	mtp_angle_r	hip_flexion_l	hip_adduction_l	hip_rotation_l	knee_angle_l	ankle_angle_l	subtalar_angle_l	mtp_angle_l	lumbar_extension	lumbar_bending	lumbar_rotation	arm_flex_r	arm_add_r	arm_rot_r	elbow_flex_r	pro_sup_r	wrist_flex_r	wrist_dev_r	arm_flex_l	arm_add_l	arm_rot_l	elbow_flex_l	pro_sup_l	wrist_flex_l	wrist_dev_l
70	-0.860801	1.27991	-0.434939	0.703639	1.34483	0.925295	-0.022538	0.284294	-0.071552	0.267271	-0.348437	0	0	0.0955411	-0.678478	-0.359578	1.31343	-0.353272	0	0	-0.211574	0.403748	-0.0466667	0.342696	-0.309356	0.297147	0.671513	1.5708	0	0	0.0281561	-0.0960923	-0.0182969	0.497733	1.5708	0	0
70.01	-0.816175	1.28431	-0.483363	0.702662	1.33754	0.927261	-0.0503354	0.277514	-0.0689484	0.251974	-0.350089	0	0	0.10959	-0.659176	-0.353316	1.309	-0.333162	0	0	-0.222838	0.389907	-0.0360766	0.36855	-0.303518	0.322577	0.66567	1.5708	0	0	0.0275814	-0.0991913	-0.0248319	0.500499	1.5708	0	0
70.02	-0.790807	1.28573	-0.512635	0.701935	1.33011	0.92848	-0.0734194	0.275616	-0.06615	0.237798	-0.351476	0	0	0.127963	-0.646465	-0.347831	1.30344	-0.316864	0	0	-0.22906	0.382257	-0.0250198	0.390238	-0.29934	0.342719	0.665257	1.5708	0	0	0.025746	-0.101113	-0.0303785	0.503827	1.5708	0	0
70.03	-0.911177	1.26796	-0.403309	0.702467	1.32099	0.925144	-0.0671377	0.311603	-0.0495299	0.223003	-0.357715	0	0	0.184347	-0.683949	-0.341012	1.31618	-0.286973	0	0	-0.196637	0.42131	-0.00732793	0.395078	-0.318602	0.372415	0.691607	1.5708	0	0	0.0284258	-0.147056	0.164052	0.499275	1.5708	0	0
70.04	-1.11617	1.21131	-0.219839	0.704383	1.31003	0.916302	-0.0395089	0.390757	-0.022207	0.210743	-0.361704	0	0	0.27807	-0.782929	-0.327991	1.35149	-0.258809	0	0	-0.136654	0.513852	0.0155056	0.379268	-0.365298	0.399932	0.766173	1.5708	0	0	-0.00564279	-0.132792	0.169715	0.531855	1.5708	0	0
70.05	-1.18878	1.1885	-0.16358	0.704694	1.30058	0.91278	-0.0374338	0.420568	-0.0028266	0.20006	-0.362295	0	0	0.329945	-0.815424	-0.322397	1.35293	-0.241168	0	0	-0.109991	0.548226	0.0358045	0.380935	-0.383922	0.419088	0.799095	1.56915	0	0	-0.0216973	-0.12994	0.182493	0.545852	1.5708	0	0
70.06	-1.18578	1.19231	-0.171065	0.70428	1.2931	0.913245	-0.0552635	0.418348	0.00580605	0.188741	-0.361687	0	0	0.350873	-0.800255	-0.316232	1.33091	-0.230829	0	0	-0.111115	0.542627	0.0498842	0.398987	-0.379663	0.43421	0.798705	1.5591	0	0	-0.019993	-0.1348	0.199956	0.542172	1.5708	0	0
70.07	-1.15464	1.20033	-0.199256	0.70424	1.28656	0.914669	-0.0811712	0.409698	0.00557837	0.175233	-0.36249	0	0	0.362955	-0.771668	-0.303038	1.29985	-0.219977	0	0	-0.122403	0.529382	0.0577152	0.425159	-0.37057	0.454896	0.789053	1.53809	0	0	-0.0135204	-0.142513	0.220421	0.536462	1.5708	0	0
70.08	-1.16016	1.20793	-0.195412	0.704195	1.27937	0.915392	-0.0921514	0.403686	0.0100724	0.165383	-0.364325	0	0	0.385194	-0.743806	-0.288731	1.26359	-0.210536	0	0	-0.117739	0.524761	0.0653307	0.446381	-0.362772	0.473341	0.781777	1.52072	0	0	-0.0208064	-0.147729	0.238728	0.511235	1.5708	0	0
70.09	-1.12809	1.20722	-0.226976	0.704081	1.27247	0.915682	-0.120947	0.403782	0.014763	0.152613	-0.363517	0	0	0.390135	-0.724702	-0.275206	1.22688	-0.199758	0	0	-0.132131	0.516116	0.076837	0.469489	-0.356671	0.493949	0.778491	1.49877	0	0	-0.00996998	-0.152438	0.247127	0.53153	1.5708	0	0
70.1	-1.12029	1.20943	-0.23619	0.703974	1.26528	0.91584	-0.138808	0.40231	0.0218075	0.142104	-0.363491	0	0	0.400687	-0.703026	-0.263555	1.18369	-0.191991	0	0	-0.134928	0.51125	0.0859684	0.49065	-0.348697	0.512628	0.772617	1.4812	0	0	-0.00960514	-0.156046	0.257	0.529288	1.5708	0	0
70.11	-1.11368	1.21161	-0.243019	0.704015	1.25819	0.915775	-0.155174	0.400854	0.0284297	0.132634	-0.36277	0	0	0.410876	-0.683117	-0.255153	1.13784	-0.186881	0	0	-0.13671	0.506761	0.0937187	0.51167	-0.34052	0.531333	0.766211	1.46422	0	0	-0.00856941	-0.159592	0.268267	0.526339	1.5708	0	0
70.12	-1.1209	1.20596	-0.23822	0.703807	1.25011	0.914233	-0.171366	0.409193	0.0388588	0.121745	-0.360615	0	0	0.438326	-0.681071	-0.249775	1.11283	-0.188134	0	0	-0.133348	0.512147	0.10228	0.527539	-0.335098	0.54756	0.767948	1.45158	0	0	-0.0156022	-0.165063	0.279154	0.534913	1.5708	0	0
70.13	-1.09698	1.21384	-0.258682	0.704341	1.24397	0.915405	-0.188987	0.399638	0.0412939	0.114989	-0.360102	0	0	0.424198	-0.650067	-0.247193	1.03658	-0.187805	0	0	-0.141513	0.499903	0.10777	0.552354	-0.323071	0.567272	0.752793	1.43166	0	0	-0.00638647	-0.167005	0.296819	0.519944	1.5708	0	0
70.14	-1.0875	1.21375	-0.266977	0.704655	1.2368	0.915107	-0.206255	0.39978	0.0463269	0.106918	-0.358988	0	0	0.427597	-0.635424	-0.243542	0.980687	-0.190691	0	0	-0.144489	0.49766	0.113652	0.572057	-0.313501	0.584378	0.745725	1.41815	0	0	-0.00616437	-0.170262	0.308983	0.517839	1.5708	0	0
70.15	-1.08294	1.21346	-0.269323	0.70505	1.2297	0.914501	-0.220205	0.40095	0.0495901	0.101182	-0.356678	0	0	0.431529	-0.619902	-0.232134	0.91825	-0.195358	0	0	-0.145232	0.49627	0.118053	0.591114	-0.303637	0.600921	0.738333	1.40606	0	0	-0.00590816	-0.173267	0.320937	0.514936	1.5708	0	0
70.16	-1.0803	1.2129	-0.269236	0.705588	1.22256	0.913673	-0.231757	0.402778	0.0500627	0.0990735	-0.352706	0	0	0.437671	-0.607706	-0.231343	0.86182	-0.200811	0	0	-0.145149	0.495664	0.121898	0.609165	-0.293998	0.616299	0.731432	1.39573	0	0	-0.00581334	-0.175633	0.330862	0.511686	1.5708	0	0
70.17	-1.07925	1.21241	-0.266778	0.706464	1.21536	0.912579	-0.240425	0.404543	0.0448651	0.101464	-0.34643	0	0	0.450862	-0.603222	-0.26138	0.828119	-0.208465	0	0	-0.144117	0.495703	0.124347	0.626242	-0.284703	0.630726	0.725601	1.3874	0	0	-0.00681389	-0.177861	0.339694	0.510348	1.5708	0	0
70.18	-1.08345	1.21197	-0.258655	0.707519	1.2081	0.91113	-0.242882	0.40672	0.0329131	0.112431	-0.334949	0	0	0.472903	-0.606476	-0.319245	0.815458	-0.223843	0	0	-0.14086	0.496634	0.124772	0.643122	-0.274818	0.645564	0.719603	1.37935	0	0	-0.00968543	-0.180615	0.347878	0.511404	1.5708	0	0
70.19	-1.08443	1.21284	-0.253457	0.708232	1.20102	0.90982	-0.241468	0.407432	0.0156198	0.132634	-0.319772	0	0	0.485519	-0.599471	-0.344342	0.781336	-0.235914	0	0	-0.139389	0.49488	0.125444	0.659729	-0.263071	0.657257	0.712024	1.37455	0	0	-0.0118145	-0.184647	0.356686	0.512689	1.5708	0	0
70.2	-0.768516	1.2501	-0.483563	0.706001	1.20335	0.918171	-0.300734	0.358396	-0.10615	0.147701	-0.301251	0	0	0.410987	-0.463111	-0.269604	0.668773	-0.293893	0	0	-0.234712	0.397344	0.0652806	0.715701	-0.198307	0.632279	0.648391	1.38224	0	0	0.03106	-0.230098	0.374818	0.522819	1.5708	0	0
70.21	-0.361761	1.27165	-0.888615	0.710964	1.20022	0.930375	-0.37311	0.235676	-0.204351	0.198086	-0.284187	0	0	0.26292	-0.285044	-0.168531	0.527236	-0.295188	0	0	-0.338687	0.292244	0.0703712	0.747505	-0.175656	0.622082	0.623213	1.39599	0	0	0.0635344	-0.230693	0.389188	0.495298	1.5708	0	0
70.22	-0.831913	1.24159	-0.392202	0.707327	1.19043	0.912539	-0.273246	0.383848	-0.155347	0.195674	-0.272322	0	0	0.387237	-0.412452	-0.0197468	0.395374	-0.305684	0	0	-0.212261	0.415956	0.0484168	0.741994	-0.175162	0.631634	0.63784	1.40273	0	0	0.0269301	-0.240868	0.39198	0.533952	1.5708	0	0
70.23	-0.773706	1.25003	-0.451278	0.710067	1.18324	0.912983	-0.293097	0.362084	-0.174498	0.207474	-0.261219	0	0	0.433673	-0.416228	-0.266435	0.545776	-0.287883	0	0	-0.229306	0.400344	0.0552371	0.755646	-0.167316	0.635455	0.634321	1.40507	0	0	0.0290174	-0.240428	0.400541	0.529509	1.5708	0	0
70.24	-0.780935	1.24957	-0.438643	0.711635	1.17611	0.911215	-0.296779	0.365409	-0.180555	0.211757	-0.257685	0	0	0.441981	-0.411132	-0.28737	0.519604	-0.285181	0	0	-0.227026	0.40264	0.054785	0.766509	-0.159481	0.636932	0.633569	1.40529	0	0	0.027278	-0.241477	0.40665	0.529707	1.5708	0	0
70.25	-0.876755	1.23974	-0.321609	0.713027	1.17007	0.905608	-0.267802	0.396599	-0.191596	0.219096	-0.247988	0	0	0.498016	-0.407613	-0.237276	0.500112	-0.272312	0	0	-0.192579	0.428763	0.0351292	0.776057	-0.152492	0.638869	0.634607	1.40383	0	0	0.0218709	-0.245221	0.415931	0.53665	1.5708	0	0
70.26	-0.724955	1.24734	-0.510257	0.71201	1.15903	0.911727	-0.338773	0.358335	-0.163945	0.212827	-0.254633	0	0	0.253936	-0.351499	0.0129831	0.0690632	-0.361899	0	0	-0.254457	0.387046	0.0840531	0.783756	-0.138198	0.628231	0.625131	1.4064	0	0	0.0274297	-0.249153	0.428455	0.526101	1.5708	0	0
70.27	-0.707591	1.24726	-0.533195	0.712998	1.15075	0.91126	-0.353963	0.354312	-0.159715	0.21598	-0.252304	0	0	0.223489	-0.342244	0.0187856	0	-0.381704	0	0	-0.263125	0.381443	0.0948829	0.791104	-0.129721	0.624503	0.623749	1.40713	0	0	0.0262563	-0.251209	0.436151	0.525091	1.5708	0	0
70.28	-0.673423	1.25695	-0.559777	0.716067	1.14475	0.910916	-0.359214	0.338565	-0.175433	0.225998	-0.248406	0	0	0.216133	-0.285712	0.0446764	0	-0.368556	0	0	-0.270177	0.368641	0.091541	0.801722	-0.122911	0.622075	0.622883	1.40713	0	0	0.0315569	-0.249524	0.442022	0.517401	1.5708	0	0
70.29	-0.669404	1.25807	-0.560388	0.718278	1.13723	0.909337	-0.363372	0.336228	-0.190278	0.237456	-0.239271	0	0	0.21363	-0.281966	0.0375651	0	-0.365492	0	0	-0.271196	0.367731	0.0921205	0.80862	-0.115637	0.617743	0.623045	1.40792	0	0	0.0306063	-0.251778	0.451645	0.517939	1.5708	0	0
70.3	-0.678489	1.26042	-0.550248	0.720443	1.12943	0.907502	-0.364351	0.334436	-0.197171	0.247486	-0.232625	0	0	0.218431	-0.281617	0.0241857	0	-0.368809	0	0	-0.267929	0.367859	0.09448	0.813396	-0.109939	0.61428	0.6251	1.40597	0	0	0.0291619	-0.252619	0.461581	0.516936	1.5708	0	0
70.31	-0.682669	1.26295	-0.545906	0.722374	1.12152	0.906045	-0.367241	0.331816	-0.201471	0.256285	-0.22829	0	0	0.224265	-0.275331	0.00875089	0	-0.367632	0	0	-0.266738	0.365991	0.0979648	0.817624	-0.104106	0.610282	0.626822	1.40206	0	0	0.0283236	-0.254046	0.470793	0.51588	1.5708	0	0
70.32	-0.388624	1.28985	-0.837174	0.729627	1.11735	0.913351	-0.410892	0.230923	-0.272948	0.290312	-0.221744	0	0	0.166359	-0.181073	-0.0540886	0	-0.392878	0	0	-0.32901	0.288695	0.0948024	0.833212	-0.0972068	0.602284	0.622532	1.39909	0	0	0.0513849	-0.24563	0.478922	0.48846	1.5708	0	0
70.33	-0.39105	1.29099	-0.837821	0.730497	1.10893	0.912643	-0.417078	0.231049	-0.267639	0.294475	-0.221643	0	0	0.156329	-0.165072	-0.0406105	0	-0.396304	0	0	-0.331023	0.284837	0.101552	0.836662	-0.0902863	0.598458	0.622862	1.39677	0	0	0.0500572	-0.248167	0.481837	0.488432	1.5708	0	0
